<?xml version="1.0" standalone="no"?><!DOCTYPE svg PUBLIC "-//W3C//DTD SVG 1.1//EN" "http://www.w3.org/Graphics/SVG/1.1/DTD/svg11.dtd"><svg t="1561885676607" class="icon" viewBox="0 0 1024 1024" version="1.1" xmlns="http://www.w3.org/2000/svg" p-id="1026" xmlns:xlink="http://www.w3.org/1999/xlink" width="200" height="200"><defs><style type="text/css"></style></defs><path d="M572.86 187.54v29.33c0 3.97 3.22 7.19 7.19 7.2l11.27 0.02c51.94 0.07 103.87-0.07 155.81 0.07 44.9 0.12 69.58 24.73 69.86 69.39 0.07 10.59 0.06 21.17 0.04 31.98-0.02 10.3-8.37 18.64-18.67 18.64H227.25c-10.1 0-18.35-8.03-18.65-18.12-0.5-16.81-1.17-33.23 0.85-49.32 4.17-33.23 29.27-52.31 65.08-52.52 52.49-0.31 104.99-0.08 157.49-0.08h11.97c4.16 0 7.54-3.38 7.54-7.54v-29.06c0-33.5 27.16-60.67 60.67-60.67 33.5 0.01 60.66 27.17 60.66 60.68z m363.99 250.09c0 16.16-13.1 29.26-29.26 29.26h-90.57v21.63c0 110.6-0.83 221.2 0.43 331.79 0.47 41.34-23.37 74.63-74.12 74.03-154.14-1.83-308.34-1.78-462.48-0.03-50.51 0.57-74.01-33.1-73.5-74.66 1.36-110.02 0.46-220.07 0.46-330.11v-22.59h-90.82c-16.16 0-29.26-13.1-29.26-29.26v-0.06c0-16.16 13.1-29.26 29.26-29.26h790.6c16.15 0 29.26 13.1 29.26 29.26zM320.83 538.61c0-11.05-8.95-20-20-20s-20 8.95-20 20v270.67c0 11.05 8.95 20 20 20s20-8.95 20-20V538.61z" p-id="1027" fill="#515151"></path></svg>